<?xml version="1.0" encoding="utf-8" ?>
<svg baseProfile="tiny" height="100" version="1.2" width="100" xmlns="http://www.w3.org/2000/svg" xmlns:ev="http://www.w3.org/2001/xml-events" xmlns:xlink="http://www.w3.org/1999/xlink"><defs /><rect fill="none" height="100" width="100" x="0" y="0" /><path d="M 50.0,10.0 A 40,40 0 0,1 70.0,15.35898384862245 L 50,50 Z" fill="none" stroke="#ffffff" stroke-width="3" /><path d="M 84.64101615137754,29.999999999999996 A 40,40 0 0,1 90.0,50.0 L 50,50 Z" fill="none" stroke="#ffffff" stroke-width="3" /><path d="M 84.64101615137756,70.0 A 40,40 0 0,1 70.0,84.64101615137756 L 50,50 Z" fill="none" stroke="#ffffff" stroke-width="3" /><path d="M 50.00000000000001,90.0 A 40,40 0 0,1 29.999999999999996,84.64101615137754 L 50,50 Z" fill="none" stroke="#ffffff" stroke-width="3" /><path d="M 15.358983848622465,70.00000000000001 A 40,40 0 0,1 10.0,50.00000000000001 L 50,50 Z" fill="none" stroke="#ffffff" stroke-width="3" /><path d="M 15.358983848622458,29.999999999999996 A 40,40 0 0,1 29.999999999999982,15.358983848622465 L 50,50 Z" fill="none" stroke="#ffffff" stroke-width="3" /></svg>